<svg width="44" height="43" viewBox="0 0 44 43" fill="none" xmlns="http://www.w3.org/2000/svg">
<path d="M29.4341 9.92798C29.4341 14.997 25.3257 19.106 20.2581 19.106C15.1904 19.106 11.082 14.997 11.082 9.92798C11.082 4.85898 15.1904 0.75 20.2581 0.75C25.3257 0.75 29.4341 4.85898 29.4341 9.92798Z" stroke="white" stroke-width="1.5"/>
<path d="M10.631 25.0185L10.8174 25.745L10.631 25.0185ZM1.69764 31.9681L2.40151 32.2271L1.69764 31.9681ZM1.69759 37.9249L2.38752 37.6308L1.69759 37.9249ZM20.7556 38.6749C21.1698 38.6749 21.5056 38.3391 21.5056 37.9249C21.5056 37.5107 21.1698 37.1749 20.7556 37.1749V38.6749ZM20.7556 23.8271C20.7536 23.0772 20.7535 23.0772 20.7534 23.0772C20.7533 23.0772 20.7532 23.0772 20.753 23.0772C20.7527 23.0772 20.7524 23.0772 20.752 23.0772C20.7511 23.0772 20.7499 23.0772 20.7483 23.0772C20.7452 23.0772 20.7408 23.0772 20.735 23.0772C20.7236 23.0773 20.7069 23.0774 20.6852 23.0776C20.6417 23.078 20.5782 23.0788 20.4961 23.0802C20.3319 23.0829 20.0936 23.0882 19.7937 23.0983C19.1943 23.1183 18.3478 23.1574 17.3562 23.2338C15.3795 23.386 12.7994 23.6881 10.4447 24.292L10.8174 25.745C13.0508 25.1722 15.5329 24.8787 17.4714 24.7294C18.4375 24.655 19.2619 24.6169 19.8439 24.5974C20.1348 24.5877 20.3648 24.5826 20.5213 24.58C20.5996 24.5787 20.6595 24.5779 20.6994 24.5776C20.7193 24.5774 20.7343 24.5773 20.7441 24.5772C20.7489 24.5772 20.7525 24.5772 20.7548 24.5772C20.7559 24.5772 20.7567 24.5771 20.7572 24.5771C20.7574 24.5771 20.7576 24.5771 20.7576 24.5771C20.7577 24.5771 20.7576 24.5771 20.7577 24.5771C20.7576 24.5771 20.7576 24.5771 20.7556 23.8271ZM10.4447 24.292C6.44545 25.3177 2.35639 28.0055 0.993765 31.7091L2.40151 32.2271C3.52772 29.166 7.07433 26.7049 10.8174 25.745L10.4447 24.292ZM0.993765 31.7091C0.55091 32.9128 0.267707 33.9186 0.250826 34.9518C0.233742 35.9973 0.489538 37.0035 1.00766 38.219L2.38752 37.6308C1.91743 36.528 1.73817 35.7384 1.75063 34.9763C1.76328 34.2019 1.9742 33.3885 2.40151 32.2271L0.993765 31.7091ZM1.00766 38.219C1.10128 38.4386 1.26129 38.572 1.37121 38.6454C1.48656 38.7225 1.60937 38.7754 1.71641 38.8134C1.93078 38.8895 2.18886 38.9427 2.45883 38.9832C3.00591 39.0652 3.73579 39.1136 4.57111 39.1397C6.24907 39.1921 8.4497 39.157 10.6816 39.088C15.1943 38.9485 19.7704 38.6749 20.7556 38.6749V37.1749C19.7556 37.1749 15.0378 37.4526 10.6352 37.5887C8.40955 37.6575 6.24727 37.6914 4.61797 37.6404C3.79966 37.6148 3.13982 37.5685 2.6812 37.4997C2.44833 37.4648 2.29957 37.4287 2.21812 37.3998C2.17726 37.3853 2.17992 37.3818 2.20475 37.3984C2.22415 37.4113 2.32327 37.4801 2.38752 37.6308L1.00766 38.219Z" fill="white"/>
<path d="M30.6814 21.8416C30.5822 22.3379 30.6814 24.3235 30.6814 24.3235C29.6349 24.4874 29.1443 24.7117 28.3984 25.3163C28.3984 25.3163 27.3064 24.3235 26.7108 23.7279C26.1153 23.1322 25.3232 23.1902 24.8251 23.6286C24.2652 24.1212 24.0001 24.9875 24.5273 25.5149C25.1227 26.1106 26.314 27.4012 26.314 27.4012C25.806 28.2076 25.5716 28.6815 25.3214 29.5854H23.0385C22.4256 29.5854 21.9043 30.2656 21.8472 30.876C21.781 31.5847 22.3267 32.4645 23.0384 32.4645H25.3214C25.527 33.5629 25.7569 34.0953 26.314 34.9465C26.314 34.9465 25.3214 35.9393 24.8251 36.6342C24.442 37.1706 24.4185 37.8903 24.8251 38.322C25.2839 38.8092 26.1873 39.0443 26.711 38.5205C27.2073 38.0242 28.3984 36.9321 28.3984 36.9321C29.093 37.6749 29.6238 37.8087 30.5822 38.0242V40.4069C30.5822 41.1597 31.418 41.5219 32.1703 41.4989C32.891 41.477 33.6592 41.1281 33.6592 40.4069V38.0242C34.6107 37.7564 35.1291 37.5701 35.9422 36.9321C35.9422 36.9321 37.1333 38.0242 37.7289 38.7191C38.1893 39.2563 39.0307 38.9364 39.5156 38.4213C39.9968 37.91 40.1035 37.2185 39.7141 36.6342C39.1185 35.7407 38.1259 34.8472 38.1259 34.8472C38.6525 34.0063 38.8035 33.5009 38.92 32.5638H41.3023C41.898 32.5638 42.4236 31.9555 42.4934 31.2731C42.5723 30.5017 41.898 29.8832 41.3023 29.6847C40.7065 29.4861 38.92 29.4861 38.92 29.4861C38.777 28.5237 38.621 28.04 38.1259 27.3019C38.1259 27.3019 38.92 26.3091 39.5156 25.6142C40.1111 24.9192 40.1336 24.0592 39.5156 23.5293C38.9858 23.0751 38.1261 23.1322 37.7289 23.5293C37.3317 23.9264 35.9422 25.2171 35.9422 25.2171C35.1378 24.6449 34.6519 24.43 33.6592 24.3235V21.8416C33.6592 21.2459 32.9583 20.7934 32.2696 20.7495C31.5185 20.7016 30.7807 21.3452 30.6814 21.8416Z" stroke="white" stroke-width="1.5" stroke-linecap="round"/>
<path d="M28.1016 31.1739C28.1016 28.953 29.8523 27.1576 32.072 27.1034C34.3465 27.0479 36.2409 28.8982 36.2409 31.1739C36.2409 33.4495 34.3465 35.2998 32.072 35.2443C29.8523 35.1902 28.1016 33.3947 28.1016 31.1739Z" stroke="white" stroke-width="1.5" stroke-linecap="round"/>
</svg>
