<svg width="19" height="18" viewBox="0 0 19 18" fill="none" xmlns="http://www.w3.org/2000/svg">
<path d="M4.83148 16.9604L1.00648 13.3164C1.00648 13.3164 0.156429 16.7354 0.0148079 17.5002C-0.0018532 17.5902 -0.0324275 17.7252 0.109238 17.8601C0.229629 17.9748 0.392579 18.0151 0.48703 17.9951C0.912024 17.9051 4.83148 16.9604 4.83148 16.9604Z" fill="#DAA893"/>
<path d="M15.7398 6.70317L11.8204 3.01418L2.04536 12.3266L5.91758 16.0156L15.7398 6.70317Z" fill="#DAA893"/>
<path d="M16.6843 5.71344L12.812 2.06944L14.7009 0.269926C14.8898 0.134963 15.362 -3.93253e-06 15.6454 0C16.0255 5.27702e-06 16.4954 0.134963 16.637 0.269926L18.762 2.29437C18.9509 2.5643 19.0119 2.78674 18.9981 3.05916C18.985 3.32004 18.9509 3.46405 18.762 3.68899C18.7325 3.72412 16.6843 5.71344 16.6843 5.71344Z" fill="#DAA893"/>
</svg>
