<svg width="44" height="44" viewBox="0 0 44 44" fill="none" xmlns="http://www.w3.org/2000/svg">
<path d="M26 20.5039L32 18.5039M26 25.5039L32 23.5039M26 36.0039L36 32.5039" stroke="white" stroke-width="2" stroke-linecap="round"/>
<path d="M17.5 9.50391V11.5039M26.5 9.50391V11.5039" stroke="white" stroke-width="2" stroke-linecap="round"/>
<path d="M11.5002 13.0039C11.5002 13.0039 11.5259 8.37938 13.0002 6.00392C15.0309 2.73167 17.6502 1.09874 21.5002 1.00392C25.5196 0.904915 28.2297 2.68561 30.5002 6.00392C32.1056 8.35031 32.5002 13.0039 32.5002 13.0039M11.5002 13.0039L22.0002 16.5039M11.5002 13.0039C11.5002 13.0039 7.00016 11.0039 5.00016 12.5039C4.19387 13.1086 3.51109 14.3508 3.50016 15.5039C3.48347 17.2636 3.50016 19.0039 3.50016 19.0039M32.5002 13.0039C32.5002 13.0039 35.6213 11.2129 37.5002 12.0039C39.0483 12.6557 40.0002 13.5039 40.0002 15.0039C40.0002 16.566 40.0002 19.0039 40.0002 19.0039M32.5002 13.0039L22.0002 16.5039M40.0002 19.0039C40.0002 19.0039 42.5002 20.0039 42.5002 21.0039C42.5002 22.585 42.5002 25.5039 42.5002 28.5039C42.5002 29.7389 40.0002 29.5216 40.0002 29.5216M40.0002 19.0039C40.0002 19.0039 34.7621 18.5039 34.5002 24.0039C34.2383 29.5039 40.0002 29.5216 40.0002 29.5216M40.0002 29.5216C40.0002 29.5216 40.5002 35.1706 38.5002 36.5039C35.5002 38.5039 22.0002 42.5039 22.0002 42.5039M22.0002 42.5039V16.5039M22.0002 42.5039C22.0002 42.5039 11.0001 39.5039 5.50012 36.5039C3.2131 35.2564 3.50016 30.0039 3.50016 30.0039M3.50016 19.0039C3.50016 19.0039 9.00016 19.479 9.00016 24.5039C9.00016 29.0039 3.50016 30.0039 3.50016 30.0039M3.50016 19.0039C3.50016 19.0039 0.999917 19.9228 1 21.5039C1.00011 23.5039 0.999998 26.0039 1 28.0039C1 29.122 3.50016 30.0039 3.50016 30.0039" stroke="white" stroke-width="1.5" stroke-linecap="round"/>
</svg>
