<svg width="48" height="43" viewBox="0 0 48 43" fill="none" xmlns="http://www.w3.org/2000/svg">
<rect x="3" y="16" width="10" height="10" rx="5" stroke="white" stroke-width="2"/>
<path d="M1.18719 42C1.18719 42 0.530674 37.6706 1.67662 35.3617C3.1394 32.4145 5.34751 30.766 8.5286 30.766C11.7097 30.766 13.9178 32.4145 15.3806 35.3617C15.8707 36.3492 16.0311 37.7063 16.0542 38.9362M15.87 42C15.87 42 16.085 40.582 16.0542 38.9362M16.0542 38.9362L33 18M5.5 12V1M5.5 1H1.67662M5.5 1H43M46.5 1H43M43 1V28.5M43 28.5H46.5M43 28.5H29.5M19.5 8.5H36.5M14.5 13.5H36.5" stroke="white" stroke-width="2" stroke-linecap="round"/>
</svg>
